<?xml version="1.0" standalone="no"?>
<!DOCTYPE svg PUBLIC "-//W3C//DTD SVG 20010904//EN"
 "http://www.w3.org/TR/2001/REC-SVG-20010904/DTD/svg10.dtd">
<svg version="1.0" xmlns="http://www.w3.org/2000/svg"
 width="100.000000pt" height="100.000000pt" viewBox="0 0 100.000000 100.000000"
 preserveAspectRatio="xMidYMid meet">
<metadata>
Created by potrace 1.14, written by Peter Selinger 2001-2017
</metadata>
<g transform="translate(0.000000,100.000000) scale(0.100000,-0.100000)"
fill="#000000" stroke="none">
<path d="M136 984 c-9 -8 -16 -25 -16 -37 -1 -31 -10 -97 -19 -132 -13 -55 -4
-159 18 -203 20 -40 77 -92 99 -92 7 0 10 -18 8 -52 -2 -29 -7 -111 -11 -183
-4 -72 -8 -157 -10 -190 -6 -85 6 -95 110 -95 62 0 86 4 95 15 10 12 11 48 6
148 -4 72 -9 182 -12 242 l-5 110 41 25 c80 48 105 143 79 300 -6 36 -12 81
-14 99 -5 54 -57 80 -86 44 -10 -12 -14 -51 -14 -152 0 -118 -2 -136 -16 -139
-12 -2 -17 4 -16 25 0 15 -3 80 -6 143 -8 120 -16 140 -58 140 -33 0 -46 -26
-48 -97 -2 -37 -4 -93 -6 -123 -2 -30 -4 -63 -4 -72 -1 -10 -8 -18 -16 -18
-13 0 -15 23 -15 145 0 132 -2 145 -19 155 -27 14 -47 13 -65 -6z"/>
<path d="M815 992 c-93 -32 -184 -140 -213 -252 -24 -93 14 -218 88 -286 l42
-39 -6 -85 c-4 -47 -9 -107 -11 -135 -18 -195 -18 -195 89 -195 39 0 78 5 86
10 12 8 15 75 15 476 0 305 -3 474 -10 488 -11 22 -45 29 -80 18z"/>
</g>
</svg>
